<?xml version="1.0"?><svg id="a" xmlns="http://www.w3.org/2000/svg" viewBox="0 0 2400 828.107"><path d="M1457.073,434.318v-103.076h21.692v104.028c0,39.38-21.692,63.434-64.156,63.434s-64.156-24.054-64.156-63.434v-104.028h21.692v103.076c0,26.647,12.044,44.827,42.464,44.827s42.464-18.18,42.464-44.827Z" fill="#f6e1c7" stroke-width="0"></path><path d="M1137.756,331.275h19.853l61.331,76.581,61.814-76.581h19.595v165.59h-21.464v-128.753l-59.719,74.261-59.719-74.261v128.753h-21.69v-165.59Z" fill="#f6e1c7" stroke-width="0"></path><path d="M1542.97,440.454c4.004,24.776,14.833,39.412,44.565,39.445,22.643,0,39.609-12.044,39.609-30.191,0-15.817-7.285-23.825-31.11-27.861l-29.01-4.955c-26.909-4.496-40.823-17.721-40.823-41.283,0-28.091,24.547-46.238,54.738-46.205,34.195,0,52.605,14.144,61.596,37.017l-20.806,8.729c-6.826-17.688-16.966-26.877-41.513-26.877-18.377-.033-32.062,9.878-32.062,26.384,0,13.192,8.729,19.099,25.236,21.954l29.01,4.955c30.421,5.185,46.73,19.099,46.73,46.238,0,30.421-26.22,50.931-61.137,50.931-42.924-.033-61.563-21.232-66.519-51.915l21.495-6.366Z" fill="#f6e1c7" stroke-width="0"></path><path d="M1693.782,331.275h21.724v146.722h93.395v18.869h-115.12v-165.591Z" fill="#f6e1c7" stroke-width="0"></path><path d="M1840.394,331.275h21.724v165.59h-21.724v-165.59Z" fill="#f6e1c7" stroke-width="0"></path><path d="M1912.222,331.275h19.853l61.331,76.581,61.814-76.581h19.595v165.59h-21.464v-128.753l-59.719,74.261-59.719-74.261v128.753h-21.69v-165.59Z" fill="#f6e1c7" stroke-width="0"></path><path d="M721.674,331.241h79.258c29.738,0,47.195,15.098,47.195,41.299,0,24.072-15.59,38.679-40.841,40.808l48.603,83.516h-24.76l-47.195-82.795h-40.579v82.795h-21.681v-165.624ZM743.356,350.139v45.033h55.219c17.915,0,27.347-8.253,27.347-22.631s-9.432-22.402-27.347-22.402h-55.219Z" fill="#f6e1c7" stroke-width="0"></path><path d="M528.543,414.037c0-42.924,26.187-84.666,76.199-84.666,50.931,0,76.167,41.742,76.167,84.666s-26.187,84.699-76.167,84.699c-50.964,0-76.199-41.775-76.199-84.699ZM658.758,414.037c0-37.247-20.28-65.567-54.016-65.567s-54.016,28.32-54.016,65.567,20.28,65.567,54.016,65.567,54.016-28.288,54.016-65.567Z" fill="#f6e1c7" stroke-width="0"></path><path d="M1003.584,496.865h-107.107v-165.591h106.435v18.869h-84.71v45.287h76.645v18.869h-76.645v63.696h85.382v18.869Z" fill="#f6e1c7" stroke-width="0"></path><path d="M325.185,331.275h19.853l61.331,76.581,61.814-76.581h19.595v165.59h-21.464v-128.753l-59.719,74.261-59.719-74.261v128.753h-21.69v-165.59Z" fill="#f6e1c7" stroke-width="0"></path></svg>