<?xml version="1.0"?><svg id="a" xmlns="http://www.w3.org/2000/svg" viewBox="0 0 2400 890.266"><path d="M1650.845,461.22v-81.894h17.234v82.65c0,31.287-17.234,50.398-50.972,50.398s-50.972-19.111-50.972-50.398v-82.65h17.234v81.894c0,21.171,9.569,35.615,33.738,35.615s33.738-14.444,33.738-35.615Z" fill="#C15A3A" stroke-width="0"></path><path d="M1397.148,379.352h15.773l48.727,60.844,49.111-60.844h15.568v131.561h-17.053v-102.294l-47.447,59-47.447-59v102.294h-17.233v-131.561Z" fill="#C15A3A" stroke-width="0"></path><path d="M1719.09,466.095c3.181,19.685,11.785,31.313,35.407,31.339,17.99,0,31.47-9.569,31.47-23.987,0-12.567-5.788-18.929-24.717-22.136l-23.048-3.937c-21.379-3.572-32.434-14.079-32.434-32.799,0-22.318,19.502-36.736,43.489-36.71,27.168,0,41.794,11.237,48.938,29.41l-16.53,6.935c-5.423-14.053-13.48-21.353-32.982-21.353-14.601-.026-25.473,7.848-25.473,20.962,0,10.481,6.935,15.174,20.05,17.443l23.048,3.937c24.169,4.119,37.127,15.174,37.127,36.736,0,24.169-20.832,40.465-48.573,40.465-34.103-.026-48.912-16.869-52.849-41.247l17.078-5.058Z" fill="#C15A3A" stroke-width="0"></path><path d="M1838.91,379.352h17.26v116.57h74.202v14.992h-91.462v-131.562Z" fill="#C15A3A" stroke-width="0"></path><path d="M1955.393,379.352h17.26v131.561h-17.26v-131.561Z" fill="#C15A3A" stroke-width="0"></path><path d="M2012.46,379.352h15.773l48.727,60.844,49.111-60.844h15.568v131.561h-17.053v-102.294l-47.447,59-47.447-59v102.294h-17.233v-131.561Z" fill="#C15A3A" stroke-width="0"></path><path d="M1066.571,379.325h62.971c23.627,0,37.496,11.996,37.496,32.812,0,19.125-12.386,30.731-32.448,32.422l38.615,66.353h-19.672l-37.496-65.781h-32.24v65.781h-17.226v-131.588ZM1083.797,394.34v35.779h43.871c14.233,0,21.727-6.557,21.727-17.98s-7.494-17.798-21.727-17.798h-43.871Z" fill="#C15A3A" stroke-width="0"></path><path d="M913.128,445.106c0-34.103,20.806-67.267,60.54-67.267,40.465,0,60.514,33.164,60.514,67.267s-20.806,67.293-60.514,67.293c-40.491,0-60.54-33.19-60.54-67.293ZM1016.584,445.106c0-29.592-16.113-52.093-42.915-52.093s-42.915,22.501-42.915,52.093,16.113,52.093,42.915,52.093,42.915-22.475,42.915-52.093Z" fill="#C15A3A" stroke-width="0"></path><path d="M1290.548,510.914h-85.096v-131.562h84.562v14.992h-67.302v35.98h60.895v14.992h-60.895v50.607h67.836v14.992Z" fill="#C15A3A" stroke-width="0"></path><path d="M751.561,379.352h15.773l48.727,60.844,49.111-60.844h15.568v131.561h-17.053v-102.294l-47.447,59-47.447-59v102.294h-17.233v-131.561Z" fill="#C15A3A" stroke-width="0"></path><polygon points="406.326 527.319 358.184 527.319 358.184 479.177 324.14 445.133 258.36 510.914 285.114 537.668 320.107 502.671 320.109 565.394 382.829 565.396 347.835 600.389 374.59 627.143 440.37 561.363 406.326 527.319" fill="#C15A3A" stroke-width="0"></polygon><polygon points="474.414 362.947 522.556 362.947 522.556 411.089 556.6 445.133 622.381 379.352 595.627 352.598 560.633 387.595 560.631 324.872 497.912 324.87 532.905 289.877 506.151 263.122 440.37 328.903 474.414 362.947" fill="#C15A3A" stroke-width="0"></polygon><polygon points="358.184 411.089 358.184 362.947 406.326 362.947 440.37 328.903 374.59 263.122 347.835 289.877 382.832 324.87 320.109 324.872 320.107 387.591 285.114 352.598 258.36 379.352 324.14 445.133 358.184 411.089" fill="#C15A3A" stroke-width="0"></polygon><polygon points="522.556 479.177 522.556 527.319 474.414 527.319 440.37 561.363 506.151 627.143 532.905 600.389 497.908 565.396 560.631 565.394 560.633 502.675 595.627 537.668 622.381 510.914 556.6 445.133 522.556 479.177" fill="#C15A3A" stroke-width="0"></polygon></svg>