<?xml version="1.0"?><svg id="a" xmlns="http://www.w3.org/2000/svg" viewBox="0 0 1800 1800"><polygon points="789.134 1168.935 631.6 1168.935 631.6 1011.401 520.199 900 304.947 1115.252 392.494 1202.799 507.001 1088.279 507.007 1293.527 712.243 1293.533 597.736 1408.041 685.282 1495.587 900.534 1280.335 789.134 1168.935" fill="#192136" stroke-width="0"></polygon><polygon points="1011.935 631.065 1169.469 631.065 1169.469 788.6 1280.87 900 1496.122 684.748 1408.575 597.201 1294.068 711.721 1294.062 506.473 1088.826 506.467 1203.333 391.959 1115.787 304.413 900.534 519.665 1011.935 631.065" fill="#192136" stroke-width="0"></polygon><polygon points="631.6 788.6 631.6 631.065 789.134 631.065 900.534 519.665 685.282 304.413 597.736 391.959 712.255 506.467 507.007 506.473 507.001 711.708 392.494 597.201 304.947 684.748 520.199 900 631.6 788.6" fill="#192136" stroke-width="0"></polygon><polygon points="1169.469 1011.401 1169.469 1168.935 1011.935 1168.935 900.534 1280.335 1115.787 1495.587 1203.333 1408.041 1088.814 1293.533 1294.062 1293.527 1294.068 1088.292 1408.575 1202.799 1496.122 1115.252 1280.87 900 1169.469 1011.401" fill="#192136" stroke-width="0"></polygon></svg>