<?xml version="1.0"?>

<svg width="100%" height="100%" viewBox="0 0 1884 365" version="1.1" xmlns="http://www.w3.org/2000/svg" xmlns:xlink="http://www.w3.org/1999/xlink" xml:space="preserve" xmlns:serif="http://www.serif.com/" style="fill-rule:evenodd;clip-rule:evenodd;stroke-linejoin:round;stroke-miterlimit:2;">
    <g transform="matrix(1,0,0,1,-258.36,-263.122)">
        <path d="M1650.845,461.22L1650.845,379.326L1668.079,379.326L1668.079,461.976C1668.079,493.263 1650.845,512.374 1617.107,512.374C1583.369,512.374 1566.135,493.263 1566.135,461.976L1566.135,379.326L1583.369,379.326L1583.369,461.22C1583.369,482.391 1592.938,496.835 1617.107,496.835C1641.276,496.835 1650.845,482.391 1650.845,461.22Z" style="fill:rgb(246,225,199);fill-rule:nonzero;"></path>
    </g>
    <g transform="matrix(1,0,0,1,-258.36,-263.122)">
        <path d="M1397.147,379.352L1412.921,379.352L1461.648,440.196L1510.759,379.352L1526.327,379.352L1526.327,510.913L1509.274,510.913L1509.274,408.619L1461.827,467.619L1414.38,408.619L1414.38,510.913L1397.147,510.913L1397.147,379.352Z" style="fill:rgb(246,225,199);fill-rule:nonzero;"></path>
    </g>
    <g transform="matrix(1,0,0,1,-258.36,-263.122)">
        <path d="M1719.09,466.095C1722.271,485.78 1730.875,497.408 1754.497,497.434C1772.487,497.434 1785.967,487.865 1785.967,473.447C1785.967,460.88 1780.179,454.518 1761.25,451.311L1738.202,447.374C1716.823,443.802 1705.768,433.295 1705.768,414.575C1705.768,392.257 1725.27,377.839 1749.257,377.865C1776.425,377.865 1791.051,389.102 1798.195,407.275L1781.665,414.21C1776.242,400.157 1768.185,392.857 1748.683,392.857C1734.082,392.831 1723.21,400.705 1723.21,413.819C1723.21,424.3 1730.145,428.993 1743.26,431.262L1766.308,435.199C1790.477,439.318 1803.435,450.373 1803.435,471.935C1803.435,496.104 1782.603,512.4 1754.862,512.4C1720.759,512.374 1705.95,495.531 1702.013,471.153L1719.091,466.095L1719.09,466.095Z" style="fill:rgb(246,225,199);fill-rule:nonzero;"></path>
    </g>
    <g transform="matrix(1,0,0,1,-258.36,-263.122)">
        <path d="M1838.91,379.352L1856.17,379.352L1856.17,495.922L1930.372,495.922L1930.372,510.914L1838.91,510.914L1838.91,379.352Z" style="fill:rgb(246,225,199);fill-rule:nonzero;"></path>
    </g>
    <g transform="matrix(1,0,0,1,-258.36,-263.122)">
        <rect x="1955.393" y="379.352" width="17.26" height="131.561" style="fill:rgb(246,225,199);fill-rule:nonzero;"></rect>
    </g>
    <g transform="matrix(1,0,0,1,-258.36,-263.122)">
        <path d="M2012.459,379.352L2028.233,379.352L2076.96,440.196L2126.071,379.352L2141.639,379.352L2141.639,510.913L2124.586,510.913L2124.586,408.619L2077.139,467.619L2029.692,408.619L2029.692,510.913L2012.459,510.913L2012.459,379.352Z" style="fill:rgb(246,225,199);fill-rule:nonzero;"></path>
    </g>
    <g transform="matrix(1,0,0,1,-258.36,-263.122)">
        <path d="M1066.571,379.325L1129.542,379.325C1153.169,379.325 1167.038,391.321 1167.038,412.137C1167.038,431.262 1154.652,442.868 1134.59,444.559L1173.205,510.912L1153.533,510.912L1116.037,445.131L1083.797,445.131L1083.797,510.912L1066.571,510.912L1066.571,379.324L1066.571,379.325ZM1083.797,394.34L1083.797,430.119L1127.668,430.119C1141.901,430.119 1149.395,423.562 1149.395,412.139C1149.395,400.716 1141.901,394.341 1127.668,394.341L1083.797,394.341L1083.797,394.34Z" style="fill:rgb(246,225,199);fill-rule:nonzero;"></path>
    </g>
    <g transform="matrix(1,0,0,1,-258.36,-263.122)">
        <path d="M913.128,445.106C913.128,411.003 933.934,377.839 973.668,377.839C1014.133,377.839 1034.182,411.003 1034.182,445.106C1034.182,479.209 1013.376,512.399 973.668,512.399C933.177,512.399 913.128,479.209 913.128,445.106ZM1016.584,445.106C1016.584,415.514 1000.471,393.013 973.669,393.013C946.867,393.013 930.754,415.514 930.754,445.106C930.754,474.698 946.867,497.199 973.669,497.199C1000.471,497.199 1016.584,474.724 1016.584,445.106Z" style="fill:rgb(246,225,199);fill-rule:nonzero;"></path>
    </g>
    <g transform="matrix(1,0,0,1,-258.36,-263.122)">
        <path d="M1290.548,510.914L1205.452,510.914L1205.452,379.352L1290.014,379.352L1290.014,394.344L1222.712,394.344L1222.712,430.324L1283.607,430.324L1283.607,445.316L1222.712,445.316L1222.712,495.923L1290.548,495.923L1290.548,510.915L1290.548,510.914Z" style="fill:rgb(246,225,199);fill-rule:nonzero;"></path>
    </g>
    <g transform="matrix(1,0,0,1,-258.36,-263.122)">
        <path d="M751.56,379.352L767.334,379.352L816.061,440.196L865.172,379.352L880.74,379.352L880.74,510.913L863.687,510.913L863.687,408.619L816.24,467.619L768.793,408.619L768.793,510.913L751.56,510.913L751.56,379.352Z" style="fill:rgb(246,225,199);fill-rule:nonzero;"></path>
    </g>
    <g transform="matrix(1,0,0,1,-258.36,-263.122)">
        <path d="M406.326,527.319L358.184,527.319L358.184,479.177L324.14,445.133L258.36,510.914L285.114,537.668L320.107,502.671L320.109,565.394L382.829,565.396L347.835,600.389L374.59,627.143L440.37,561.363L406.326,527.319Z" style="fill:rgb(246,225,199);fill-rule:nonzero;"></path>
    </g>
    <g transform="matrix(1,0,0,1,-258.36,-263.122)">
        <path d="M474.414,362.947L522.556,362.947L522.556,411.089L556.6,445.133L622.381,379.352L595.627,352.598L560.633,387.595L560.631,324.872L497.912,324.87L532.905,289.877L506.151,263.122L440.37,328.903L474.414,362.947Z" style="fill:rgb(246,225,199);fill-rule:nonzero;"></path>
    </g>
    <g transform="matrix(1,0,0,1,-258.36,-263.122)">
        <path d="M358.184,411.089L358.184,362.947L406.326,362.947L440.37,328.903L374.59,263.122L347.835,289.877L382.832,324.87L320.109,324.872L320.107,387.591L285.114,352.598L258.36,379.352L324.14,445.133L358.184,411.089Z" style="fill:rgb(246,225,199);fill-rule:nonzero;"></path>
    </g>
    <g transform="matrix(1,0,0,1,-258.36,-263.122)">
        <path d="M522.556,479.177L522.556,527.319L474.414,527.319L440.37,561.363L506.151,627.143L532.905,600.389L497.908,565.396L560.631,565.394L560.633,502.675L595.627,537.668L622.381,510.914L556.6,445.133L522.556,479.177Z" style="fill:rgb(246,225,199);fill-rule:nonzero;"></path>
    </g>
</svg>